<?xml version="1.0" encoding="UTF-8"?>
<svg width="800" height="400" viewBox="0 0 800 400" fill="none" xmlns="http://www.w3.org/2000/svg">
  <rect width="800" height="400" fill="#F5F7FA"/>
  <circle cx="400" cy="200" r="150" fill="#0066FF" fill-opacity="0.1"/>
  <path d="M400 100C322.5 100 260 162.5 260 240C260 317.5 322.5 380 400 380C477.5 380 540 317.5 540 240C540 162.5 477.5 100 400 100ZM400 360C338.5 360 290 311.5 290 250C290 188.5 338.5 140 400 140C461.5 140 510 188.5 510 250C510 311.5 461.5 360 400 360Z" fill="#0066FF" fill-opacity="0.2"/>
  <path d="M400 160C344.8 160 300 204.8 300 260C300 315.2 344.8 360 400 360C455.2 360 500 315.2 500 260C500 204.8 455.2 160 400 160ZM400 340C361.4 340 330 308.6 330 270C330 231.4 361.4 200 400 200C438.6 200 470 231.4 470 270C470 308.6 438.6 340 400 340Z" fill="#0066FF" fill-opacity="0.3"/>
  <circle cx="400" cy="260" r="40" fill="#00AF69"/>
</svg> 