<?xml version="1.0" encoding="UTF-8"?>
<svg width="800" height="600" viewBox="0 0 800 600" fill="none" xmlns="http://www.w3.org/2000/svg">
  <!-- Fundo com gradiente -->
  <defs>
    <linearGradient id="skyGradient" x1="0%" y1="0%" x2="0%" y2="100%">
      <stop offset="0%" style="stop-color:#E0F2FE"/>
      <stop offset="100%" style="stop-color:#BAE6FD"/>
    </linearGradient>
  </defs>
  
  <!-- Céu -->
  <rect width="800" height="600" fill="url(#skyGradient)"/>
  
  <!-- Edifício principal -->
  <rect x="200" y="150" width="400" height="350" fill="white" stroke="#2563EB" stroke-width="4"/>
  
  <!-- Cruz do hospital -->
  <path d="M400 100 L400 150 M370 125 L430 125" stroke="#2563EB" stroke-width="8" stroke-linecap="round"/>
  
  <!-- Janelas -->
  <g fill="#E0F2FE" stroke="#2563EB" stroke-width="2">
    <!-- Primeira fileira -->
    <rect x="250" y="200" width="60" height="60" rx="4"/>
    <rect x="350" y="200" width="60" height="60" rx="4"/>
    <rect x="450" y="200" width="60" height="60" rx="4"/>
    
    <!-- Segunda fileira -->
    <rect x="250" y="300" width="60" height="60" rx="4"/>
    <rect x="350" y="300" width="60" height="60" rx="4"/>
    <rect x="450" y="300" width="60" height="60" rx="4"/>
  </g>
  
  <!-- Porta principal -->
  <rect x="350" y="400" width="100" height="100" fill="#2563EB" stroke="#1E40AF" stroke-width="2"/>
  
  <!-- Escadas -->
  <path d="M300 500 L500 500 L480 520 L320 520 Z" fill="#94A3B8" stroke="#475569" stroke-width="2"/>
  
  <!-- Árvores decorativas -->
  <g>
    <!-- Árvore 1 -->
    <circle cx="150" cy="450" r="30" fill="#22C55E"/>
    <rect x="140" y="480" width="20" height="40" fill="#854D0E"/>
    
    <!-- Árvore 2 -->
    <circle cx="650" cy="450" r="30" fill="#22C55E"/>
    <rect x="640" y="480" width="20" height="40" fill="#854D0E"/>
  </g>
  
  <!-- Nuvens decorativas -->
  <g fill="white">
    <circle cx="100" cy="100" r="20"/>
    <circle cx="130" cy="100" r="25"/>
    <circle cx="160" cy="100" r="20"/>
    
    <circle cx="600" cy="150" r="20"/>
    <circle cx="630" cy="150" r="25"/>
    <circle cx="660" cy="150" r="20"/>
  </g>
</svg> 